<svg xmlns="http://www.w3.org/2000/svg" xmlns:xlink="http://www.w3.org/1999/xlink" id="Layer_1" x="0" y="0" version="1.1" viewBox="0 0 443.3 511.9" xml:space="preserve" style="enable-background:new 0 0 443.3 511.9"><style type="text/css">.st0{fill:none}.st1{fill:#010101}.st2{fill:#082c38}.st3{fill:#3472b9}.st4{fill:#f0505b}.st5{opacity:.15;fill:#082c38;enable-background:new}</style><path d="M443.3,383.9L443.3,383.9L443.3,383.9z" class="st0"/><path d="M221.7,256L221.7,256L221.7,256z" class="st1"/><path d="M221.7,256L221.7,256L221.7,256z" class="st1"/><path d="M221.7,256L221.7,256L221.7,256z" class="st1"/><polyline points="0 383.9 221.7 511.9 110.8 320 0 383.9" class="st2"/><polyline points="0 128 110.8 320 221.7 511.9 443.3 383.9 221.7 0 155.2 38.4 0 128" class="st3"/><path d="M279.6,195" class="st4"/><line x1="0" x2="221.7" y1="128" y2="0" class="st5"/><line x1="389.1" x2="0" y1="290" y2="128" class="st5"/><polyline points="0 128 221.7 256 221.7 256 443.3 128 221.7 0 0 128" class="st2"/><polyline points="389.1 290 0 128 0 128 221.7 0" class="st5"/></svg>